<mxfile host="app.diagrams.net" modified="2024-07-07T10:36:59.548Z" agent="Mozilla/5.0 (Windows NT 10.0; Win64; x64) AppleWebKit/537.36 (KHTML, like Gecko) Chrome/126.0.0.0 Safari/537.36" etag="Wh7Dr5cVlkHDCPs4-JGY" version="24.6.4" type="github">
  <diagram name="Page-1" id="d4JrnpxnG2i4ox_OfxH6">
    <mxGraphModel dx="1232" dy="1097" grid="1" gridSize="10" guides="1" tooltips="1" connect="1" arrows="1" fold="1" page="1" pageScale="1" pageWidth="1169" pageHeight="827" math="0" shadow="0">
      <root>
        <mxCell id="0" />
        <mxCell id="1" parent="0" />
        <mxCell id="27v5HE9clx1l_0dUM49G-13" value="Google Cloud Platform" style="sketch=0;points=[[0,0,0],[0.25,0,0],[0.5,0,0],[0.75,0,0],[1,0,0],[1,0.25,0],[1,0.5,0],[1,0.75,0],[1,1,0],[0.75,1,0],[0.5,1,0],[0.25,1,0],[0,1,0],[0,0.75,0],[0,0.5,0],[0,0.25,0]];rounded=1;absoluteArcSize=1;arcSize=2;html=1;strokeColor=#6c8ebf;shadow=0;dashed=0;fontSize=12;align=left;verticalAlign=top;spacing=10;spacingTop=-4;whiteSpace=wrap;fillColor=#dae8fc;" parent="1" vertex="1">
          <mxGeometry x="215" y="164" width="855" height="346" as="geometry" />
        </mxCell>
        <mxCell id="27v5HE9clx1l_0dUM49G-5" style="edgeStyle=orthogonalEdgeStyle;rounded=0;orthogonalLoop=1;jettySize=auto;html=1;" parent="1" source="H0iX1OeEeafwR9ZZ4RMi-1" edge="1">
          <mxGeometry relative="1" as="geometry">
            <mxPoint x="260" y="244" as="targetPoint" />
          </mxGeometry>
        </mxCell>
        <mxCell id="H0iX1OeEeafwR9ZZ4RMi-1" value="" style="shape=image;html=1;verticalAlign=top;verticalLabelPosition=bottom;labelBackgroundColor=#ffffff;imageAspect=0;aspect=fixed;image=https://cdn1.iconfinder.com/data/icons/seo-and-web-development-6/32/development_computer_website_check_result-128.png" parent="1" vertex="1">
          <mxGeometry x="70" y="200" width="88" height="88" as="geometry" />
        </mxCell>
        <mxCell id="27v5HE9clx1l_0dUM49G-6" style="edgeStyle=orthogonalEdgeStyle;rounded=0;orthogonalLoop=1;jettySize=auto;html=1;exitX=1;exitY=0.5;exitDx=0;exitDy=0;entryX=0;entryY=0.5;entryDx=0;entryDy=0;" parent="1" source="H0iX1OeEeafwR9ZZ4RMi-2" target="27v5HE9clx1l_0dUM49G-18" edge="1">
          <mxGeometry relative="1" as="geometry">
            <mxPoint x="480" y="244" as="targetPoint" />
          </mxGeometry>
        </mxCell>
        <mxCell id="H0iX1OeEeafwR9ZZ4RMi-2" value="" style="shape=mxgraph.gcp2.doubleRect;strokeColor=#dddddd;shadow=1;strokeWidth=1;" parent="1" vertex="1">
          <mxGeometry x="270" y="210" width="168" height="68" as="geometry" />
        </mxCell>
        <mxCell id="H0iX1OeEeafwR9ZZ4RMi-3" value="&lt;br&gt;Google Analytics" style="sketch=0;dashed=0;connectable=0;html=1;fillColor=#5184F3;strokeColor=none;shape=mxgraph.gcp2.google_analytics;part=1;labelPosition=right;verticalLabelPosition=middle;align=left;verticalAlign=middle;spacingLeft=5;fontColor=#999999;fontSize=12;" parent="H0iX1OeEeafwR9ZZ4RMi-2" vertex="1">
          <mxGeometry width="45" height="45" relative="1" as="geometry">
            <mxPoint x="5" y="7" as="offset" />
          </mxGeometry>
        </mxCell>
        <mxCell id="27v5HE9clx1l_0dUM49G-8" style="edgeStyle=orthogonalEdgeStyle;rounded=0;orthogonalLoop=1;jettySize=auto;html=1;exitX=0.25;exitY=1;exitDx=0;exitDy=0;entryX=0.25;entryY=0;entryDx=0;entryDy=0;" parent="1" source="H0iX1OeEeafwR9ZZ4RMi-6" target="27v5HE9clx1l_0dUM49G-17" edge="1">
          <mxGeometry relative="1" as="geometry">
            <mxPoint x="440" y="380" as="targetPoint" />
          </mxGeometry>
        </mxCell>
        <mxCell id="27v5HE9clx1l_0dUM49G-9" style="edgeStyle=orthogonalEdgeStyle;rounded=0;orthogonalLoop=1;jettySize=auto;html=1;exitX=0.5;exitY=1;exitDx=0;exitDy=0;entryX=0.5;entryY=0;entryDx=0;entryDy=0;" parent="1" source="H0iX1OeEeafwR9ZZ4RMi-6" target="27v5HE9clx1l_0dUM49G-1" edge="1">
          <mxGeometry relative="1" as="geometry">
            <mxPoint x="614" y="360" as="targetPoint" />
          </mxGeometry>
        </mxCell>
        <mxCell id="9z63jUB6I__pgRGD_R05-4" style="edgeStyle=orthogonalEdgeStyle;rounded=0;orthogonalLoop=1;jettySize=auto;html=1;exitX=1;exitY=0.75;exitDx=0;exitDy=0;entryX=0;entryY=0.5;entryDx=0;entryDy=0;" edge="1" parent="1" source="H0iX1OeEeafwR9ZZ4RMi-6" target="9z63jUB6I__pgRGD_R05-3">
          <mxGeometry relative="1" as="geometry" />
        </mxCell>
        <mxCell id="H0iX1OeEeafwR9ZZ4RMi-6" value="" style="strokeColor=#dddddd;shadow=1;strokeWidth=1;rounded=1;absoluteArcSize=1;arcSize=2;" parent="1" vertex="1">
          <mxGeometry x="610" y="215.01" width="130" height="60" as="geometry" />
        </mxCell>
        <mxCell id="H0iX1OeEeafwR9ZZ4RMi-7" value="BigQuery" style="editableCssRules=.*;html=1;fontColor=#999999;shape=image;verticalLabelPosition=middle;verticalAlign=middle;labelPosition=right;align=left;spacingLeft=20;part=1;points=[];imageAspect=0;image=data:image/svg+xml,PHN2ZyB4bWxucz0iaHR0cDovL3d3dy53My5vcmcvMjAwMC9zdmciIHhtbG5zOnY9Imh0dHBzOi8vdmVjdGEuaW8vbmFubyIgd2lkdGg9IjIwLjAwMTA0NTIyNzA1MDc4IiBoZWlnaHQ9IjIwLjAwMTA0NTIyNzA1MDc4IiBmaWxsLXJ1bGU9ImV2ZW5vZGQiIHZpZXdCb3g9IjAgMCAyMC4wMDEwNDUyMjcwNTA3OCAyMC4wMDEwNDUyMjcwNTA3OCI+JiN4YTsJPHN0eWxlIHR5cGU9InRleHQvY3NzIj4mI3hhOwkuc3Qwe2ZpbGw6I2FlY2JmYTt9JiN4YTsJLnN0MXtmaWxsOiM2NjlkZjY7fSYjeGE7CS5zdDJ7ZmlsbDojNDI4NWY0O30mI3hhOwk8L3N0eWxlPiYjeGE7CTxwYXRoIGNsYXNzPSJzdDAiIGQ9Ik00LjczIDguODN2Mi42M2E0LjkxIDQuOTEgMCAwIDAgMS43MSAxLjc0VjguODN6Ii8+JiN4YTsJPHBhdGggY2xhc3M9InN0MSIgZD0iTTcuODkgNi40MXY3LjUzQTcuNjIgNy42MiAwIDAgMCA5IDE0YTggOCAwIDAgMCAxIDBWNi40MXoiLz4mI3hhOwk8cGF0aCBjbGFzcz0ic3QwIiBkPSJNMTEuNjQgOS44NnYzLjI5YTUgNSAwIDAgMCAxLjctMS44MlY5Ljg2eiIvPiYjeGE7CTxwYXRoIGNsYXNzPSJzdDIiIGQ9Ik0xNS43NCAxNC4zMmwtMS40MiAxLjQyYS40Mi40MiAwIDAgMCAwIC42bDMuNTQgMy41NGEuNDIuNDIgMCAwIDAgLjU5IDBsMS40My0xLjQzYS40Mi40MiAwIDAgMCAwLS41OWwtMy41NC0zLjU0YS40Mi40MiAwIDAgMC0uNiAwIi8+JiN4YTsJPHBhdGggY2xhc3M9InN0MSIgZD0iTTkgMGE5IDkgMCAxIDAgMCAxOEE5IDkgMCAxIDAgOSAwbTAgMTUuNjlhNi42OCA2LjY4IDAgMCAxIC4wMDctMTMuMzYgNi42OCA2LjY4IDAgMCAxIDQuNzI3IDExLjQwM0E2LjY4IDYuNjggMCAwIDEgOSAxNS42OSIvPiYjeGE7PC9zdmc+;" parent="H0iX1OeEeafwR9ZZ4RMi-6" vertex="1">
          <mxGeometry width="30" height="30" relative="1" as="geometry">
            <mxPoint x="15" y="15" as="offset" />
          </mxGeometry>
        </mxCell>
        <mxCell id="9z63jUB6I__pgRGD_R05-2" style="edgeStyle=orthogonalEdgeStyle;rounded=0;orthogonalLoop=1;jettySize=auto;html=1;exitX=0.75;exitY=0;exitDx=0;exitDy=0;entryX=0.75;entryY=1;entryDx=0;entryDy=0;" edge="1" parent="1" source="27v5HE9clx1l_0dUM49G-1" target="H0iX1OeEeafwR9ZZ4RMi-6">
          <mxGeometry relative="1" as="geometry" />
        </mxCell>
        <mxCell id="27v5HE9clx1l_0dUM49G-1" value="" style="shape=image;imageAspect=0;aspect=fixed;verticalLabelPosition=bottom;verticalAlign=top;image=data:image/png,iVBORw0KGgoAAAANSUhEUgAAAiUAAAFcCAIAAACYylkoAAAACXBIWXMAAAsTAAALEwEAmpwYAAAgAElEQVR4nO3deXhU9b0/8M/ZZslMyA6EEFAMIJuCoOACCAUr0Fqhrqi9VWu9t7XW2sfW/trbPm1t9daqrZXeVuvVtler1luuVuUKCgVkVTHKEgwBQoDsZJuZzMxZf398zLdj1sl2MpD36/HxCcnJmTOT5Lznu32+kuM4BAAAMMjkob4AAAAYFpA3AADgBuQNAAC4AXkDAABuQN4AAIAbkDcAAOAG5A0AALgBeQMAAG5A3gAAgBuQNwAA4AbkDQAAuAF5AwAAbkDeAACAG5A3AADgBuQNAAC4AXkDAABuQN4AAIAbkDcAAOAG5A0AALgBeQMAAG5A3gAAgBuQNwAA4AbkDQAAuAF5AwAAbkDeAACAG5A3AADgBuQNAAC4AXkDAABuQN4AAIAbkDcAAOAG5A0AALgBeQMAAG5A3gAAgBuQNwAA4AbkDQAAuAF5AwAAbkDeAACAG5A3AADgBuQNAAC4AXkDAABuQN4AAIAbkDcAAOAG5A0AALgBeQMAAG5A3gAAgBuQNwAA4AbkDQAAuAF5AwAAbkDeAACAG5A3AADgBuQNAAC4AXkDAABuQN4AAIAbkDcAAOAG5A0AALgBeQMAAG5A3gAAgBvUob4AgE7oJlU32Q0Rh4gUmUaOkEdlSEN9Uae30iprz2GrNuQQ0Zgcef5kFS8puExyHGeorwHgU0qrrP0nbcMiue1+aDsU8NKs8cqYLLTIe62y0f7x2nhxhU1EXpWIKG4SEV19vnL3cm/Ai9QBlyBvILVsKzVPNjqa0smXDItmjpMn5Xf2NejC3uPWV56OeVXSOiR1WKexmdKf/s2PyAF34N0ipJC9x62uwoaINIWKK+yaZrxDSlZzxPn6HzsPGyIKeuhEk/OVp6OuXxcMU8gbSBW6SSWVdldhw2SJ9h633Lqi095/b9PjZudhw4Ie2ldpbys1XbwoGL6QN5Aqyussuad+HUWmhogTiaOJ0zPdpHUfmkFPD4dl+aS1Ow1XrgiGO+QNpIqWSLIpciqEvOlZY8Q5llzf48Eae7AvBoCQN5A64snd9GSJYgbypme1LUm9oNzbpqNHDQYf8gZSBW55A6sgubnjhk1E5MFKPBh8yBuAM1PQJ43PkIwkGjkzxmGKObgBeQNwZvKodP0cLd5Tq7Ex5lw/T3PlimC4Q94AnLFWXaLlBaibJk5Yp89OUmaOR/sG3IC8AThjBbzSb2/1E1FY7+SrYZ3mFMg/X+13+7JguELeAJzJxuXKf/9W2qUTlbBO7f67fb625g4/ZgqAa/C7BnCGywhIj97kq2y0S45Zh085fpXG5skXnaOgbBq4DHkDMCyMyZLHZMmfGerLgOEM/WkAAOAG5A0AALgBeQMAAG5A3gAAgBuQNwDDSE2z0xBGtVMYGpifBsNFZaN9tM5uanV0kzwqZaZJZ+fJY5Iraumm0irr/4rNzR9bzXGHiM7Jk6+6QF06XevPQpltpeaf3jGKK+xW0yGiNFW6+nzlpvmecbkp9/ThDCY5Dt7sQErYdMA8FXaUnm6Alk3nFcqT8ntRgkU3aVupWRdyZInE+S2bbIfy0qVLJ6mps+bx8XXx53aZXpWobacAw6a4SWMzpQev9/bqWQsPro09/76Z5ZMSN/rk0357mee6uSieBi7Buxs4823YZ5wKO5pCiWGmyKQpdCrsbNiXKrtbPrg29twuM+ghTf7nJtCaTEEP1YWdW34fq6jv9cZoD66N/e+H1sg0qd2u0nzan/49/npxqjx9OOMhb+AMt63UjOrUVbNJkSmq03tlQ7/3ztvFxvPvd7n9syaTV6WvPRPt1Tk3HTC7OScRjUyTvvVivDnpnVUB+gN5A6liMDq1InGnqqmHPjpFpvIGJxIf4nvuH7YbWb7uCsxoMtVF6K19vYjGF3b2cE4iyvJKr+5GEwfcgLyBVDHCn1Q5L9uhjLRkf29PhZJKEdtJ9shBUlFvH6l1tJ6ellelt/cnmzeRuFNSaSdzzjdKhr55B8MB8gZSRUGWbCdxz9cUygokW2iyIbmeIlmi5uhQ5k1tU7IDMyebkr1O06TGWM8HazKFIg428wYXIG8gVWQHpeyAZHV74zUsKholp850MvcZFsZa4HSFvIEUcvFERZGpq8ixbMpLl2YU9mJOcFrXQ+XteIc0w0Yk3WLLz8DfLJyu8LsLKSTgla6Yofo9ZFif+rxlk2FRTlBaNLV3sTBqRLK/4ckfORjOylPGZkrdbPzM4ibNK8Lez3C6Qt5Aagl4pRUztXnnKOk+yaMS/5efKS08V+1t2BBRRkDKCfbQR2fZlJ8pZSTdwhgMHpWunaPGexpECXro6tlYngmnq2HcEQ4pbFyuPFClVi46R1m/t7sbuSLTzPFD32i44TLP1hLrvZN2V8tlalud333JN5zHruB0h/YNnOECXmnxFJWok2Eh/sziKWqK7Kz82K3+OQVybavTrmPNsCms06+u8V46CWkDpzH8+sKZLyMgrZyj7T1uldXYInX8HhqXI/dq9sFg86i05g7/W/vM/3xLr0uo4rxsmnLbYu+ojJQIRYA+Q97AcDGjUJlRqIg6AinSpuloyXR1yXS1IezEDIeIUrCCNUDfIG9geEnZmGknOygRnR6XCpAkvHUCAAA3oH0DKaoh7IRjTsxwfJqUky6dLu0SAOgK8gZSTmWj/cExKxInWSIi4qJqeenSBeOVoV0lAwD9gf40SC3Fx6x3Si3dJN4ejXdF+2RjtP1mZWOvNxwDgBSBvIEUUlFvl1bbWmdTlDl7th+y+rk5mG5SJD7A5ZAjcach7AzsrmWlVda2UrP4WH+fL0DqQH8apJCdh61OwybRnmNWHwrb6CZ9XGWV1diiMlvAS+Ny5Mn5Sp9X7Osmbd1nvL7fqmr+pNU1wictmqQsm6X1ud9PN+nFrfpT24zGmJOmSkTUGHfmn6N8Y6knFYogAPQH8gZSRUV9z31likx1IScSd3o1faA54rxz6JNdpUWe6SZ9XGVXnLIvm6j2IR4aws7Dr8dPNjl+jUYk7KH5xn5rU6l111JPH1aSNkec256Knmhygh4amfbJOYMe6VC1feczsdvna1/9TNL1rgFSD/rTIFXUNtlycrf9Xu3FGYk7G0tM3aSOu0orMukm8Vd76+d/i9WGHH+H4pn8mYff0Psw1HTbU9G6sNOxfpomU9BDv9mkr30PGz/DaQx5A6kipCd1mCwRL7xP0o5DVo/1obeV9i5wnnxbr42S2vVfj6bQL99I7vm0WbM+fqKpuy2lR6ZJD72mi/oIAKcd5A2kiuTHUXxast1fzRGnqdXp2LJJpMh0qjej/c0R5/1jVseWTSJVpvqws/e41d1BCXSTNh6wktnz7e/vDnATx7DJq0koOw0uQN5AqshLTypFbIcy/MnmTU1Lsp1ayR95tN6OJnHP1xTafyzZvKlusrtv3DCvSu8dSfacfq80KVdOZg+3KQW4D4Ab8HsGqeKsPMVOoo0R8FLyw/utSfdp9bjXmXAy6YGZ2qTHmWqbkj1nNJ7kgeRR6epZPe/h1mo6X7oMe7iBG5A3kCo8Kk0aLRvdvn03LJpz9hB3/XjV06bGwfWXerrfpjqs0xfOVyflY6Y1uAF5Aylk5nglL13qKnIMi2aOk3u1DUx2ci2hXvXRjctJ6kjDojE5Q/z35VHpt7f6PRqFO2vnhXWaP0H+4Uqf69cFwxTyBlLLoqnqlDGyYZFl//M//ue8c5TevhPPSW5MSJaSPZKIzspTup8sIJxXOPR/X6MypFfuSVs6TTkecsI6if9qW51vLdF++SU/ZgqAa/C7BilnRqEyOV8pr7NaIg4RqZqUHZDG5fbl3h3wSmdlS+UN3U1Rs2wqGiUnv4DUo9JVF6gv7jK7SR3Tpjnj5BTppwp4pQeu9X3vKqf4mHW81lY90lnZ0pwi/O2D2/A7B6nIo9JA3aznFKk1xQYXF+jIssnvod6WilkxU/voqFVS28l6TyIybcry0O2LU6sWQMArXTpJpUlDfR0wjA19ex9gsC2druUEJe6UE7ibLicorZjZl9lZ31vpu6xIaYk5ZsI5TZtaYk5+hvT/VvmwYQ9AO2jfwJnPo9KiqWpNs1NWY9W2fDJHOT9TKhql9Gr2QTtf/YznyvPVv+8xjlbbIZOI6PwC+ZKJCrqqADqFPwwYLkZlSKMyBvgXflyu/PUrvAN7ToAzFfrTAADADcgbAABwA/rTIBU1hJ2KU3Z9yImbTppHyk2XJozsxZRlaKei3n5uq75uv1UdcYhoUrZ0/Rztqov6vi8cQB8gbyC16Ca9e8Q82ejI0iczmKO6cyrsfFxlT86X+7CJGTz5tv6bTXqaKgU9VJguEVHUoCc2G09tM368ytuHzVIB+gb9aZBathw0q5ocTfnnchlF/uS/kkq7OOmKy8DWrI//ZpM+Mk1qt40b//P+l+K93fsHoM/w1gZSyLZSs5vtajSFSqvtPtcaaAg7R6qtmrCjm+RRaVRQmjBayQ72t0Opot4urbbrm+z0oDQuJ7VaYO+VmX/aboqtqdvRZNI8dO/z8a0/UFHVBlyA3zJIFZG4c7LR0bq9XWsK7T1h9TZvOvbR6SaVNzhHTpkFWdKlk/r4V1BaZT2zxSg/ZWuKpClkWGRYzgifdMM8LUU6qV7YbiSzh9uL2/RbFqZWNQQ4I6E/DVLFkVpbTqKxEYlTQ7h3eyp37KMjIkUmTaGqJuetfX3pUNpWaj7wql4bckb4JL9Gqkx+jUb4JCJ68h/6C+/0bjPpwRCJO7sr7GT2cHtjP7rUwA3IG0gVLdGkUkSWqD6U7O5kRFR8zGqIdNlHp8jUEOnFxs+sot5+4i2dY6ajET7plY/MvsXYADoVchpjPb+kmkyhiKMjcWDwIW8gVQzGLU83qazG7rGPrqzG7tWjP7lJT/N01xYb4ZP+stNojvSuHTawYsZQPjpAR8gbSBXpyY0g2A75tGQH+auT26fZsJI9kogqG+2KBqfTlk27c+5JejbdyEy51UwqHvxJV88pyJbTktiK1LApPSBhvgC4AHkDqWJkpmwnccvt1d5oDcm1MGSJmpPrzSOio3VJJZOm0KGqZDMsJ10an0Tl0LhJcyYkO/8t4JXmFMjdbCYtznlZUQrNqYMzGPIGUsW4XLn7ji8ismzKz5SGttBAU2uyyRTTkz0y4JWuukDrdNfnRF6Vls3qxe4J11yqxXvqJ2w1nS9jchq4AnkDKWTuOYrRbReUIvd6b7QBl9nFcpaOfN2O8bTz5YWesZlSN82R2lbnu5/z9KoCzaKp6tXnK93EWFinh67xolAQuAN5AylkTJY8c5xs2Z/aGI3xZxaeqw75zbEwO6m/GsOiCaN68fflUempr/jzglLHeDBsqm11vn+lpw9bw31vpe/q85XaVqddkhk2hXW6b3lfzgnQNxglhNQyKV8ZNULec8yqC32qM2pCjnTeWSmxDH5crlyQKdWGepgyoCl0wVm9a4plB6W/3JX27Gb96a1Gq+nwaH9j3Jl3lvL4lZ4+N+y+t9K37ALrvzfrr5ZY3rZzrJ6t3jTf07dKDQB9IzkOJk1CKtJNaow4RKQp1OeqM8XHrLIau6vFN4JlU6+KgZZWWT9aG+fVnZ2KGrRytrpyTt+bDqVVVkvEUTVp4uiBLIwdiTtENORtRBieUuDtIkBnPCr1Z7PnQTUpX7n5Eu3FXaa/s0CJGjT3bLk/YcMP0Z9v7wqSBoYQ8gagL1bM1MblyM9sMaqa/1k/jYg0ha6fq2JQBKAj5A1AH80oVB69SSmtsvaftOMxR9ak1BlkAkhB+MsA6JdJ+cog9X0BnGEwOwUAANyA9g2kLt2kaNzp1QrHM0Mk7pQct5rDDhEVjpIHsP0UiTuagmppMDTwewcpRzfpwEmrrMYW5dQCXpo4oLfdlNUccR5+I/7Kh6YotdlqOqPSpftXeJdM7/tf697j1vPbjY0lFlcFTVOlm+aq11/iSdkZgHBGwvobSC01zc72Q6ZlU7tFM4ZFAS8tna716r35IK2/GSQV9fatT0bDOgU/Xc/MsKkx5txxqXb3sqSrQyd4fF38qW1Glk9K3HstrJNXpe9+DvUFwD0Yv4EU0hB2tn5sErUPGyLSFIrqtGGfcabuDBaJO7c9HTXs9mFDRJpMI9Okp7YZf97c621DH1wbe26XOTJNarfRZ9BDmkz3vxwf8n3hYPhAfxqkkB1lZjdtEUWmqE4HTlpDXrJTqKi3N+83PzxmhUwioqlj5IVT1L5d3tMb9VC0k7ARRqZJT2wyrpipJd8J9l6Z+fz75siuC4yOTJO+9UJs578HsA4UXID2DaSKykY7Eu/hGEXu9V6cg+fPm/XvvhT7x6FPwoaIPjph/8fr8R/8NdYQ7l03dXPEefUjs5uwEdYXG8mf9plNRlbXRXdYmio9904vzgnQZ8gbSBW1LY6cxJts26H6ULL7mA2ex9fFNxy0RvikxKqdqkwjfFJVs/Pzv8V6FYo1LXYo2vNhXpXeOZzsnqGRuLO3xtZ6+hP3qrTp49QIcDjTIW8gVTQmvRdnODbEk1w2HTB3HLU6LZ5GRKpMjTr9bkNPjbUELck9dyJqSfq5nwo5jUkcrMkUijgp0mSEMxvyBlLFYCwK6XFmWh/oJr3+ntFNcWgiUmV6r8KuqE+2HaZqyQ6fZCd9JECqQd5AqhjhT+pOajuUkZbs721OULKTaA/YDo0ckew5y+us2iT6vojo/fJk+77yM2VvcnE7NjfZvMlJl3ocvCEiw6b0AFaAghuQN5AqCrLkZLJBUygr6YoDY7JkLYnJYgFvL87ZbiO4rmgKVTYk274ZlSFNGSN3s5k0i5u07IJkl8sEvMmec/k0pA24AXkDqSI7KGUHpI47SScyLCoaJffqzfi0AtnotplhWDSxl+dMkpVs84aI6NvLPPFuB1HCOs2fIPdqsvUdC7Tuz0lEraazah6WfIIbkDeQQhacqyoydRU5lk156VJvqwBMylcKsqSuIsewqCBLSoVKOZPylfuWe2pbnU5bJGGdxmZKP77e16tzzilSb5qrhrteJFrb6jy+2ofFN+AO5A2kEI9KV8xQM9Mkw/pU6lg2GRblZ0qLpvalGXLpJHXKGNmyif/jE/J/U8bIl05Kld6kay7SHl/t82gU1imsk2GTYVNYp9pWZ+k05U//5u9DMNy9zHvTXLW21WmXOnz+x27w9e0lBegD1E+DVFRRbx+utXmkRFNo5AipaJTSz+KSuknldVZdyInq5PdQXrp0Vp7Sh260baXm7zcZXU2GFkybzi+Q+1DxTDdpy0Hz3UNm2Sknwy/NGiMvnKGOy+3XW8PSKutP7xgb9lutphO3qDBd+sIs9V8WeIZh7W0YQsgbgN4Z7LwZVNiPAIYQfu8AhhEM1cAQwvgNAAC4AXkDAABuQN4AAIAbkDcAAOAGzBeA4UI36eMqqyXq6CZ5VMpLlwqy5RQcP9dN2rrPeOtjqyHipKt09mh56Qw1FVakAvQT8gbcppvUGHEs2/FpUtDn0tzc4mNWabWduL9OVZNTXGFPGt27CjGD7e1i4//9r05Eonzn1iP277YYn52k/Ph6NwoB6CZVN9kNEUeRqSBLzg6mXB7D6Qt5A+5pCDsllVZVkyPqcsoSnZUtTSlUBvVOuq3UPNnodCzcqRCVVtuRuJMiJQZe2mX89O/xdts/ax4KeqStR+wv/Kr1lXvSBvWFWvue8X8fmS0xR1MkIjIs56wc+Yuz1TlFKfH6wOkO4zfgkop6e+MBs6rJUWTSlE/+U2Qqb3DW7zUrGwdry869x61Ow4ZpCp1sdPYe701lzcGx97j1yDq9XdgIQQ+FonTvc7FBevTKRvsHf42tfd8kohE+ya+RX6MRPqk25DyyXn/hna5LsAEkDXkDbqhstHcethS5kw3Q+DPvlFrvlQ38HpO6SR9X2d1vSaApVFZjD/kGl09s0LvfAifooeIKezBepU0HzPtfilc1Ox2LJvAO2W/st17ebQz448Jwg7wBN3xwzOrxpl/e4Ly1z4zEB7LAUnWTncyeOoZF1U2D1cBKRk2zU1Jpa0n8OW7YO5B5o5u0Zn38yX/ofo3Urh/dr9GrH5g1zah9Bf2CvIFBV9loR+I9H6bI1NTqrN9rJr8Nc48aIo6cxHiHLFFzdChvpsfrrB43qiEir0on6gfsOivq7ftfjO06ane/N7aw+eBQtwHhNIe8gUF3KpzUTZ/a+tZ2Hra2leLW1rkGY2Dy5vVi4wf/E2+OdtKH1ilNoQ+S3h4boFPIGxh0Lb1sOmgKVTU5rxcbzZH+3ls7Dhd1pfuxk08dmfQ5fZ5k55KNCEitZlJPtqDfE5QjcefBtbEXd5nd96G1o8rU0O8fBwxzyBsYdMnfoAVFJt2kDfvN0qp+vacuyJKTGb+xHcpNT/YqR2YmdaRh0YRRyZ6zIFseld5zkMRNOr9/q4VKq6wfvRgrO5VssyZRCq6NhdML8gYG3Yi+buqlyFRcYfenby07KAV62oDGsik7ICW/sHFcrlyQKZk9jTFpCl1wVrLZEPBKV53X3cbPworZvQ+KNmvfMx54VQ+ZvWjWCKZN5+Qhb6BfkDcw6M7K6/tbctG31hDuY2fOxUWq0W0byXZ6EQxs9SVaq97d9UQNWnqu0qvF+bcv9qT7yeg6xmpbnW8t0fq24J/70Na+b/ahWcNadefSyVj1Cf2CvIFB51Fpcr5s9XXSGfetvbXf7NuqzOygNO8cxbKp4wXwJ+ed07tgIKIZhcoX52jRLlakRA2aM06+4TJPr84Z8EovfT1thJc6tnIMm8I63XGp1ttzsuJj1t1/7mMfGjNtOi8/tQr/wOkI+0mDSzYdME+FneQH8DsyLCrIki6coPah5FpzxNl30jrZ+M/fdlmi/ExpeoGS0dfuvm2l5tqdRm2UxNIibkhdNUu95qI+3tojcefpjfrL75uNMSdNlYio1XRmFSp3LtL6VnTnhXf0N/ZbfU4aIjJtyvLQ/1vlQy016CfkDbjnvTLzyKkuS8skw7JJkemSieqojL7c+0SpUEWWsgIDUCpUN+mjcrPkpB01iYgmjJIvPLvvAZZ42gMnLV76enaePCarLyndHHEefiNe0dD3Zg0RRQ0aly197yovJgtA/yFvwFWVjfauwxbHRp8ZFqVaXedU816Z+fjbhqb0ZWqAEDVo5Wx15Zx+5BVAAuQNuC0Sd3Ycshoi/WroGBZlB6SLJw5uYenTkW7Si9v0N/abSVYN6JRpU4Zf+tfFGvbdgQGEvIGhsfe4VVLZQyXN7nEjafZZyrhcTHv5RGWj/Zv1+smmfvWhtcSc8/Llu5ejDw0GGPIGhkxNs7P9kNn/vrUJORI2aCGibaXm7zf1qw/NtMmw6EuXakum4/WEgYe8gaGkm7St1KwL9XcSgd9Dl01U+z9Qf5rSTXpqY/ydMqs/fWhRg3KD0j2f9aC9CIMEeQNDr7TK+ui43Z9WznDuWyutsn630agP93ce2mVFypcXetzZ3huGJ+QNpISGsLP54AD0rRVkSW5uDq2b9O4Rs7jcaok4AZ90Tr58cZHq5jqVt/aZf9rW3z60Vt356uWeRVMRNTC4kDeQQraVmt3s/ZwMTqyF57px0+d7PdGn1nsalrN8mnrLwr4UAuiVSNx5/I34R1XJ7l7TKe5D+8EXvFjLCS5A3kBq6X/fGhEZFs0cJw/qXN4X3tFf+ajzOce8RvKBa32D9+ilVdYj63TT7u/ymqXnKtdfij40cAnyBlJOc8R555AZ1Qegb61vxW96VHzM+o/X4900LKIGLZ+m9K3cWY/Wvmf0p/Imtc1Du/szGub1gZuQN5CiBqr4zWD0rd37XIyLzXTDtOnn1/r6VnenK80R57fr4yW1A1Ci5t5l6EMDtw27yTxwuphTpM47RyHqpK5zkrh51OfC0l0prbLqk9gcwbDovaMDuSv23uPWvX/pV5lnamt4PXAtim/CEEBrGlLXuFw5J136R0m/+tY0hUoq7fqQc+mkgelbSywy3f3jltf2NSo7GJAyz6pM9y33zChEiRoYGmjfQEoLeKUVM7WzsqXu90zrnqbQqbDzerFR0zwAvcdNrcmexBqIZlUk7nzvxVg/wyZqUH6G9IvrfQgbGEJo38BpYE6ROianX4Wl+bs2HzT7X1i6MDPZniifp799VqLMcz/DBmWeIRUgb+D0MCZLXjFT7mfxG02h0mq7PuT0p7B0YZ6iKV1s7ZnAsOiC8X3vP+AyzxsODsBWad9e5kGZZ0gF6E+D04ZHpUVT1Slj5H72rTW1Ouv3mpWNfRxcGZUhFeVIZk/f7ddoSl87ryob7R/9T6yfYRM16PwC+cfX+xA2kCIwHxpOPwNV/KbPhaUbws49z8W6CYOWmPPtKzx9O/mmA+YzW1HmGc5AyBs4LXFh6VNhp59VPvtcWLq0yvqP13Wi9qnA9/q+jZfoJv3nW/GdR1DmGc5MyBs4jZVWWcUV/dq0jYgsmy6a0JfC0jXNzsu79F1H/9mzZljOefny5+ZofZgGVlFv/+pNHWWe4QyGvIHT25AXlm6OOBUNdn3ISfdQYZ7St4ICrxcbL+4y+1/m+a4lHjfLYwP0CvIGzgTbSs2qpv72rSkyLZ7i9qZtXOa5/yVqCjKle670Dmz5HICBhbyBM0RFvb37iNXPwtKWTecVDm5h6USlVdaTG/RGvb9lnpdPU1bNQx8apDrkDZw5Ur+wdKKXdhmvFaPMMwwjyBs40wxUYelLJqqD1D01UH1oKPMMpxfkDZyBuG+NqL8NnSlj5AEvOFZ8zPrNhk4mUvdK1KDPzVSvm4sSNXA6Qd7AmSkSd3Ycshoi/WroGBZlB6QF5w5Y39pAlXn+t894+lkFDsB9yBs4kxUfs0qr+7VAZ6D61pojzsNvxCsa+tuHNmWk9LUrvC5PogMYEMgbOMPVNDvbDw3AAp3+FJbeVmr+flO/StQQyjzD6Q95A2c+Ln7Tn8LSRGTZlJkm9Qfo2j8AACAASURBVKGw9J8362/sN/tTosa0KcMv3bqgL2ULAFIH8gaGi73HrZLKAehbm31W++I3kfgnf0Ttoqiy0f7Nev1kU3/70OaMk29f7OnzBgoAKQJ5A8PIgBS/sWwqGiWfnStvLDG3HTA/OGEbCXsTFGRLy6eoC2eoh2vt/95uUD/mofHymuvnqitmog8NzgTIGxhedJPePWKebOxj35pHpYZm5x+HrN3lVpoqeVXSPh0nhk1xk1pNJ8snFWRLfe5GQ5lnOPMgb2A4Kq2yPjpu97aV41FpxyFry8cWUfuY6UpmmpQ7oteR0xJzFk1WUeYZzjDIGximGsLOjrJeFL/xqPTqHrOk0k4yaQRJoXPykv0e7kO7db62aCqiBs40yBsY1raVJtW35lHpb++Z+07YQU9fHiXJyOEyz/etQIkaODMhb2C447416rr4DXejbdhv9S1smF+jgpzuIidq0NJzlVsW9uMxAFIb8gaAmiPOu0etptbOd9AJR5ynthqddqOJ2QH8z05nEAgjMzufPmDaRET/djnKPMMZDnkD8IlOC0t7VPrv7cbJBqdjioR1Gpspfe1ybVaRmh2UeFXpCzuN4oouu92KRrc/C5d5vm85StTAmQ95A/BPFfX2++VW4gKdeMx57C2jY36EdbprkdZp99emA+aP/hbvtJXTronDW6XdcBn60GBYQN4AfAoXlua+NY9K73xsbTtktQuPbsKGFR+zbnkqOjKtfZNFjOJwmee7lnpQogaGDywlA/iUgFdaMl0tGiUbFhFRaVX7CdCGTWMzpe4H9meOV+64VEusO8CiBpk2RQ3Kz5AevcmHsIFhBXkD0ImZ45WF56pRnZpa23cAxE2664qee8D+ZYEnbnby+VbdWTlbfeBaH+qhwXCDvAHo3KgM6ZKJSsc2ChFddE7P7ZKMgDRhpNTu28M6fXGOhj0FYHhC3gB0ybQ6+aQ36UnL5+V38veVhckBMFwhbwC65NX61eVV3ojJOAD/hLwB6JJPJU+Hrq/GmHOktrNetk+LxJ1Oi62N7LbKAMAZDL/6AF3KCEgZ3vZjMGmq9Np7Ro/fu7PE7DhfwKtSDmqjwXCFvAHozpzxcrvYCHro+ffN0qrOxnba6Cb9+DW93SpRw6a8oDQmC390MEzhVx+gO5+bo4nyaMLINOkrT8cq6jvvVWuOODc+0drx83GTrp6FCmkwfCFvALozo1AZn9G+S43d/LvonzfrDeF/plFzxHm72PjiE6114U7qrbWazlWYCQ3DGOrZAPRgW6n5r3+KdSxOQ0RhnYIeOjdP9nspGqePG+xQlDot1hnW6aa56t3LvIN+uQCpCnkD0LPvvRjbWNLl/jei9dPVTgSGTSO89LdvBbA/NAxn6E8D6NmPv+jrWCxA0ORP/uvGozf7EDYwzCFvAHrmUelXN/nzglJY7903GjaFdXr8Ft+kfJTmhOEOeQOQlFEZ0p/+zT9znFzboYJnV8I6aTL9+U7fzPEIGwCM3wD00tr3jKc36XUR6mrraN5k2qvSNbPVf13qRTcaAEPeAPSabtLWfca6j8wPTti1rU6a+qmpaxNGSsunqCsu1LJRSgAgAfIGoO+aI05Ni32y0bFsIqJRGdK4bDkjgJgB6ATyBgAA3ID5AgAA4AbkDQAAuAF5AwAAbkDeAACAG5A3AADgBixFA0hK4kxOSRqaGc98DYmP3vEzACkL7RsAAHAD8gYAANyAvAEAADcgbwAAwA3IGwAAcAPyBgAA3IC8AQAANyBvYAA4CYb6Wv4p+atyHMeyLPFP0zSJyLZt8RnDMBzHkSTJsqwhXOwiSVK7R+/4mUHiOI54QRJfK4DkIW8APlkvadt2NBolIlmWOVdM09R1nYg0TZNlmT4dQsNKPB7nVyAWiymK0traOtRXBKcf7H8DAyAV1t53lPxV2bbtOI6iKLZt813VMAxN04jINE1VVflskiQNz/X8/NzFa8JNRsMwvF7vUF8anE6QNzAATve8EWzbliSJ/8/BI7rRbNtul0DDB/c3qqoaj8dVVRUvDkCvIG9gAJzuecPNGsuyFEXhgKG2HiTOGGrrSRu291nDMCzL8vl8RMSdjdwiHOrrgtPJMP3jAUjEKSLGJ3g83Ov1igYNfzVxzHxYicfjmqZZlnXffffNmjVr7ty5O3fuHJ4vBfQH2jcwAM6A9o3jOLIsi8OqqqqCwaAkScFg0DRNx3E4e8QAz3BjWdZDDz30wAMPxGIxn8/nOM6ePXumTp061NcFp5Ph+JcD0I4sy2LkxjTN7du3f+lLX5o/f/7u3bt1XVdVlfvZhnYy9NDSdT09PV2WZVmWY7GYJElpaWlDfVFwmkHewADgVSCiu6nHJS/iMO6qoi6WdMTj8cSVMaIDx7ZtwzD4A8uyxAGJJ4lGo1Ib/kZd1zlOKGHqszgtTwGQZbmxsXHt2rVvvfVWRUXFjh07+Jzc9OFM4gfq6glyY6jTV8A0TfF8Ez8proEfi7/RNM2Or0liF5Z44h3P2Q5PdqCEFzzxzOI6+cVs90nxRPx+/6JFi1atWjV58uTJkyc/9NBDOTk53T8uQDvDa5oNDBKeKcsDyHyHMk3T4/F0dbwIJzHgzPdxHqu3bZu7rXi6La+DUVVVlmWOGbEaRkwh4/spn822bV3X/X4/td0u+Qx8PbIsx+NxRVH8fr9lWbFYLBAIiPm+fJcPh8NE5PF4PB6PaZpiHjBnkvgnEZmmqSgKXzznmfgn37t5Khc/Hf52vlSxTlNVVcuyotFoMBhUFIVHSsRjUdvgPB8sXhxucvEB3UyW40vled787aqq8hkooY9RfCDOyYnu8/l4bp6iKKZpzpgx47e//W11dbWmaaNHjxYvAkCSkDcwAMR9X9d1j8cjSZLH4+GO/k6P5/sy3wf5Y54exmPy3GnDh5mmyXdMfpedeI9LnFQm7viO43i9Xp/Px0nAJ+cbNB9v2zZfIYdiIBAQi280TdM0raWlpaWlhYjEchwxciMO46aAoih8r9d1XZblxHzl5yJilVsYognFx3AY8HmCwSC3mTif+JP8kooPKKEdya8zEYXD4WAw2NXPRdM00zTF62kYBr/UnQ5B8Se5Xejz+RLfCnDeO46Tnp6enp5Ow3gcC/oDeQMDQLROxE0wLS2tq7AhIkVR+O0/39R0Xee33mJBJd/OZFkWWSKmKRORuIeK23EsFtM0Tdzxxc2dU4e7njRNMwxDkiRuRni9Xq/Xm7jA0zRNv99vmiavMgmFQpwx4mIoIXUSV+fw4/KjcI6KSxVpSgmLe/iaOQz4OsPhsN/v53u6uCTROBMfc9L4/X5ucKiqGgwGE1+ZdnjRDH8sIoofQrSZ+AUX5+d2YeILzj8a0fASLZ5u3k8AdAp5AwNANE34427ecYvjucmi63piTvB56NNTy/jun/hOn++hiYklbnx8Qu40kySJE0W0isTyeO6pE9kmSRI3bvgM4XCY77wceLIsc1Ubftx2DQ7R1hG5whLv5nyMSFDR+lFVNRKJBAIBfsU4abhJRwl3/MRnKp67yLBu2hn8WPyNopmS2I0pIi1xJY1pmtwK5B+Q1+vltBYPxE8KYQO9hbyBAcCDNzzawe+FiShxsWQ7YpyDb388LyAtLY1DiL/K/V3cmUZEuq7HYrFQKFRVVWWaZl5eXlZWFn8Lt1p4IETTNM4ATpRYLObxeCKRiMfj4d4k0co5cuSIbdsFBQXp6ekcOdFoVDwF7gHj7+WWB3+V2tpMoonAKcIDHo7jNDQ01NfXx+PxrKysESNGeDyeESNGiOaRuLmbpskfeL1eXddF08rj8bSbeJ3YIWbbNrcdRaslHo+LFkmnRO+c+FkoiqLremtraygUikQilmV5PJ709PRAIKBpms/nE7ki6giIzI7FYqqqikIDWO8JvYL1NzAwQqFQenq6rus7duz4v//7v5EjR954442jR4/u6njuQ9M07dChQy+++KJpmp///OdnzZrFkwJEKqiqeurUqX379m3cuPHDDz+MxWJ8W/f7/V6vNzs7+7rrrps1a1Zubm7i+3cxzmFZVnV19S9+8QvDMO69996JEycePnx47dq1u3fvrq2tlWW5sLDwZz/72dixY1944YVXXnmF5wvs2LGjurra6/Wed955Y8eOtW3b5/NlZGTceOONl19+eWL/Fffjmaa5Z8+erVu3FhcXR6PRlpaWaDTq9/szMjLy8/OnTZv2mc985uyzz+YxLTGAL8syj7787ne/27t371VXXfWZz3yG2ubCia4w0UCpr69fv379tm3brrzyys9//vP8EPTp+QvtiGM4I4no8OHDBw4cWLduXUtLS0NDQyQS4WwOBoNpaWnz5s1bsGDBrFmziIi7HKkt8PjCduzY8corr+Tn51933XX5+fkD+QsEw4ED0G88Cdg0zbKyssWLFweDwZycnCeeeKKr43lg33Gc2traRx55JCsry+/333nnnYcPH253zrKysq9//eszZsxIT0/n+En87ZVleerUqddff/3bb78tvoUH3i3L4mT66le/6vP5VFW99dZb9+3bd91113E4cdopivL+++8fP358xYoVlDBBS3TxiS41IvrOd74TiUT48rhN5jhOeXn5I488ctlll+Xk5CS+3+dLlSRp3LhxK1asePnll5uamvjaEl+BV199dfz48ZqmXXLJJRs2bBBPny9ePKlwOLxly5ZJkyYR0Q033HDw4MF2l9GVeDzOx8RisRdeeOELX/hCUVFRWlqaaMQkrnLNzc1dsGDBs88+yz2K4mr54+bm5nvuucfr9ebn57/88sutra3dPzRAO+hPgwGQOB5QXV3d2toajUb3798fiUS8Xq8ICaet7KPopWlpadm5c2c4HDYMIxqN8ufFTOLDhw/fdtttu3fvjsViRJSdnb148eKpU6cGAoGqqqqXXnqpqqrqwIEDhw4dqqiouOuuu1avXk0JxWl41u+uXbtisZjf79+zZ8+bb7752muvcS393Nzc0aNHL1++vLCwMDMz87LLLtu1axcReTyempoaXdcVRfH5fJmZmY7j6LqelZU1bdo0HtUQHU0nTpz41a9+9fzzz586dYove+XKlVOmTMnNzW1paXn11Vf37NlTUVFRU1Nz+PDh+vr61atXBwIBMV6i63pNTU1FRYUkSTt27Hj66afHjx9fVFQkehrFqH4oFLr99tsPHTrEE+HGjBnDL5TH4+l+CEcE5x/+8Idf//rX1dXVoVBIkqQ5c+bMnTs3Pz9fluX6+vrdu3dv3bq1sbFxy5Yt5eXlhYWFixcvFm1E/gnW1dWVl5fH4/GqqqqKigrUs4FeG9K0gzOEZVn8NjwWi/3mN7/h29+UKVPeeOMN0eZIfLPsOA6vknnuuedGjhwpSVJWVtbatWvFeRzHKS8vX7BgAbXlxze+8Y09e/bU1taGw+FIJFJdXX3ixInNmzdrmsZ3w+XLl2/dulUsEXXaWgYzZ87kiQPjxo0bOXJkIBC45557du3adeLEiRMnTnCHkm3bjY2Nx48fr66uXr9+/YUXXqiqakZGxkMPPXTgwIHjx48fPnz48OHD3OYQT+TQoUM/+MEP8vLy+E9pyZIlb775ZkVFRSwWa25uPnnyZG1t7fr165csWcIHjBs37n/+53+i0ah4BQzDqKurW7lyJRHxkqB77723urpajAaJwy6//HJupc2dO7e4uLjHZk27n04sFrvqqqu4b2358uX79u07duxYY2NjJBKJxWLhcPjgwYOvvfYa96QRUVFRUVNTk2iE8UnKysquvvpqPuDRRx/lNhBA8pA3MGD4Jvjuu+9OmzaNiDwez7333hsKhZxP98w4bUlQV1f3zW9+kwcJPvvZz+7bt49nG5um2dra+sADD3DSBIPBH/7wh7W1teLb+ZZt23YsFisuLs7NzeWx6zvvvLOpqYlPIh70vPPO4yaC1+stKCh46qmnmpub+VH4g3ZPoaSkhG+7BQUFP/nJT5qbm8UJHceJxWJ85ng8vnnz5sLCQr7/3nbbbcXFxXxaPl5k3s6dO7/4xS/yFV5xxRV79+4V53EcxzCMkpKSxYsX83mCweDjjz8uHo7v+D//+c/5q2efffZLL73U8TXvigjvaDS6bt262267bePGjeIdANc7ED8a27b/8Ic/5Ofn82jQrl27+AK43wx5A/2HvIEBwLcwvvcdP378u9/9Li+mWbhw4fvvvy9uwY7j8Lwv/nj9+vVjx44lIk3TnnnmGcdxRN4cOHCAh6PT09NXr15dU1PDX4pGo+JNt7hRPv/887wIcerUqS+//LJYNMMHTJ8+nW+RXq/3jjvu4Ltn4tgD33O53r6u60ePHr3wwguJKC8v77HHHmttbe046MJP8+abb+Yzz5s3b+vWreL6xcl1Xefvff3116dMmcLx+eyzzzqfboE5jvPuu+8WFRXxjX7GjBmvvPIKZ6phGBs2bMjKygoEAj6f7yc/+Qk3Vtq98t2IRqOJx4hrEz8F3sOUX4RQKHTRRRdxPN91112JhyFvoP+wQhgGAG8wzEMFY8aMueSSS3iAoaSkhPu4pLYNm/meG4/Ho9HosWPHTp06RUTjx48fN24cEXFRGUVR3n777aqqKiJKT09ftmxZXl4eF/7iPiXR7UZEuq7PmTPnwgsvlGW5srLy4MGDXB1AlALjideKoowZM+bmm2/mPiWPxxOPx/kkPB2AR5U0TQuFQqIiWWtrK8+I43+KBTq6rpeXl//lL38hokAgsGrVqrlz54pXw+/3cx8dr1mJxWLz589ftWoVX8amTZsqKiooYQ0NEZ133nnf//73MzMzvV7v3r1716xZU15eHovFqqurv/rVrzY2Nra2tq5YseLuu+8Wi4r46fPU6q5+Lrquc6UAvh7Lsvx+P78tEKMvPFVazETnopxEdPToUWqrPNTf3w8AIkK9ThgoXC2Yb81Tpky5+OKLHcepq6vbvn17fX09fbraptfrLS8vX7NmTTQaTUtL4znNonpNS0vL2rVreZLu1KlTL7/8ciLSNI3nhomyY7yY0ePxjB49+tJLL1UUpamp6eDBgxxUYqSd2tYn5uTkzJ8/n9/IK4ri8Xi4EcbXzPUF+PL8fj9PyNY0LT09nQvYiPN4PB7Lsvbv38+RNmnSpPPPP5+PEbVBedULn9nn83m93gsvvDA/P19RlLfeeuvYsWM87c1pWyGradry5cvvuecejsP169c/+OCDZWVlq1evPnbsmM/nu/DCC//4xz9mZGTw1InEiRXd1E8T60blNkTk9XrFMtJ4PB4KhUKhECerbdsjRozguQzRaDSxfihA/2F+GgwAXufhOA4XBDvrrLOWLFmyYcOGhoaG999///333x81apSYKCVJUmtra3Fx8ccff+z1eseMGTN16tSMjAxxQ2xsbNy3bx9P5OWqmkeOHLEsy+v1hkIhXpPY1NTE78QbGxuzsrImT57s8/ksy6qqquKbqagCIO6tYoUpJRTNdNqqFYglLGKxJy+sMU3T5/MlhqUsy6FQaMOGDUTEk4ODweChQ4f4qzxhjL+L2sqReTweXdcnTJhQVVUVDof52sQ2btz+GDly5A033NDS0vLMM8/U1dVt2LDh1KlTZWVltm2PGTPmscceS0tLEy8IPxcOy27qZkqSxGVsuOgnp6DjODxLLRQKNTU11dbW8hgbL/opKyszDIMH1fg6UScNBgryBgYA9yA5bYvnZVmePXv27NmzN27cePjw4Z07d86fPz83N/eTPlxZbmpqeu211/hePGXKlAsuuIDL4Yj7Y2NjIxHJsnzkyJH7778/sfNH1L7kWyfff6uqqvhsvAJfdNzxkaJCs7jgxAJliRV0TNPk3io+uaZpra2tvORe3OV5mGfPnj2apsXj8QMHDvz6179OLJgmWjlid2pJkiKRyNGjR/nMp06dEsXHROnrWCw2YcKEW2+99fjx46+88kpdXd3rr79ORHl5ed/5znfmzZtHRFxaRpTBTqxZ0OnPRUyYFiWiS0pKPvjggy1btpw8eVKkDo9REZHH4wmFQlxfrt1qU4D+Q97AwGj3LrioqGjJkiVvv/22LMtr16794he/KEoASJJUVla2c+dOSZJycnJmz57NyxgZNwW4uIDjOAcOHNi/f79YTMP3bu7yEhvYUEJVMfHGX1wVz1bgnGh3zYk1K/kDTdPEafkCRLMssWAzF9fhhffl5eW8gKbj+dvhKnAiksUnOWK5mTJx4sSlS5du3bq1pqaGH/T888+/+eabxaWK6mdOW2U28U9ReI3aig4k1liTJOnJJ5/829/+tmfPnpaWFh5U0zSNx3i8Xi/X1OEZGdRhR1RRH49flsSQTjyy42cABOQNDAy+qYm38+np6eeff/7UqVPLyso4Xc4991yfz+fxeMLh8Ntvv338+HHHcYqKipYuXcpzBPiWzb1PYshk/vz5S5YsEeUyOTl4boLctrkAD71wP9u5557Lc976LDGEOi5p5Ps7l4fhDy644IJly5a1K3nZDreEuJExYsSIWbNmcbODe674Y37QhoaGkpKSUCjET9myrIqKivXr1/MaHT6V6O5L3IvBadvxmlMwsfi0qqqGYfz+979/8MEHKysrVVUdMWLE8uXLp02bFgwGeRyL/+/z+f7zP//z3Xff5TKd1BZj3QwRASQPv0YwMESJaPHedtasWcuWLXv44YdVVf3Tn/60atWqESNGGIZRX1//yiuvGIbh9/unTZs2ffp08Q6d34bzdjKGYXg8ngkTJnz3u9/lVhF/iTvQHMfxer38Jp0f127bU6cPF8/v2Z2ErXeordHT7q06/zMQCIwZM+bEiRP8NP/93//dbttip+Pouhho4TaEqEAqt20oR22tw1Ao9Mc//vGvf/1rU1PT+PHjW1tb6+rqjhw58v3vf7+wsPD888/n8afE/dOkhB0cuO0lsiGxEt369euffPLJyspKIpoxY8b9998/a9asvLw8rtEpLjsej7/wwgv8HPmS0JkGAwgjgTAwEu/LfDfMycmZM2fOtGnTTNP8+OOP161b19TUpKrqvn37Pv74YyIaNWrUggULvF6vqIjMJ/H7/dnZ2VzpuaWlhd93czvA6/Xy1DIeyOHvVVWVD6ZPT0vr81NI7DgS2h1z3nnncVdbY2Pj0aNHuYY0b/XWDl8kXzPPTuYFNNS2TwG/XLFY7LXXXnvmmWeOHj2al5f37W9/+xe/+EVhYaFpmocPH77//vt5TIV77cRGalbbztbtmiDxeFzU525sbHz99df3799PRDNmzHj44YevueaaCRMmZGZmJhaN5mhpamoSP8TErUUB+g95AwNDDGJT21YrsizPmDFj2rRpiqJEIpGtW7fy53/6059yZ9HkyZOvvPJKsXEAn8GyrJEjR86fP59L4FRXVx84cIDa5v62uz8m9ndxjxD1df5uYjda4mwCxutXqK2TraCgYMWKFbquq6q6a9euAwcOJDbsOk0psVECX6oYBRFjOe+9996aNWv279+vqurKlStXrlx50003XX/99YFAQNf1Xbt2ff/73+e5bTyxLXGMKvHa+JPcluKfSFNTU0lJCX/+7LPPXrBgAQ9r8bcYhiG37TgXi8VisZiYZi1ekD68ngAdIW9gYCS+C+bBDEmSioqKFi5cOGrUKMdx3nrrrXfffTcSiXz44Ydc4X/BggUjR45s9+38wbXXXsuzio8fP75582YiUhSFR/JFbTFqq22c2KFECQt9kpd4S+X1j9wDxgUFElOBRaPRwsJC3iStrq7u2LFjvCxGPAVBHC++JHKIV63yXkGHDh1as2bNhx9+SETLli375je/yWXZfvjDH15yySW8nPbZZ5998sknOeSoLWY4pHkKgyiEGg6HqW2uhCzLzc3NvATK5/NNmjSJXx+v15s4xYCHf3bv3t3Q0MBRlLg9NsCAQN7AAHDa9iQW3f1iutfMmTO5lEtVVdW+fft++tOf8qDLzJkzP/vZz3KnDX26/n88Hr/sssvmzZvHJQNee+01buLwWkjuJhJjNtywqK6u3r59+8GDB+2EzSv7RlVV3rCZy24mBgm1bUHm9/vHjx9/1113cTGYp59++p133iEiUa1HvCxiVX9LS8uHH364e/dunjjAD8RdcM3NzX/5y19eeOGFcDg8adKkG264obCwkJt96enpv/zlL3NyclRVbW1tXbNmzYsvvpiYXkTEK1h53gR/XuwWykNKsixnZmZyubnGxkbe4Y3aMsZxHO43i8Vi//Vf/3Xy5MnEJ0uYbAYDB3kDA4DfMosBGFGwyzCMiy++ePLkybym/ZFHHnn00Ud5nHzGjBlcSVN0o/GpeJuv3NzcH/zgBz6fzzCMTZs2PfzwwydOnOCS0uJBxXqdPXv23H333QsWLPjhD39YWlrah/4fkZdExJO1+My8I5lYZi+aJoZh5ObmXnvttQsWLFAUZf/+/WvWrNm+fXtX59+7d++PfvSjK6644pZbbuFKa+JLoVDo2Wef/dnPfiZJ0ujRo++9997rrrsuEAhQ21S06dOn//nPf+YSZ0eOHHn88cf37dvH88V5Rh93LTY2Nt5+++1Lly79+c9/zg0Unn5NRPn5+WPHjuUA27hx4wcffMCvOecTv0uIRCK//e1vt2zZEo/HOfvFTxP7DsCAcQAGk2maxcXFvMKGu24URSksLNy8ebMolOkkbC8mCkRGIpEnnngiKyuLf1FXrFjx6quvnjx5srKysqamhidulZSUXHPNNdy/FAgEvvGNbxw9elQ8Lp9qxowZ/NBz587t5jq5tqZt29Fo9OGHH+ZZZBdddNFf//rX48ePNzU1nThx4vjx47Ztx+NxbrVEo9FXX331kksuISKv11tYWPjcc88dOnSoqqqqpqampqbmxIkTe/bsefTRRzMzM7nez6JFi7justg34X//9395AncwGPza175WWVkp6o2Ka4vFYvfdd5/oOrvuuuvq6uqctmKdPLbEezdIkpSdIVCLAgAAB+5JREFUnX3//fc7CfVMbdtes2ZNYWEhB0lubu7mzZsPHTrU1NRUV1dXWVm5Y8eOO++80+/3c+07PuyWW25x2kpx8w+ovLx85cqV3GX32GOPoV4n9BbyBgYR3xB1Xb/xxhv5dsn3sq985Svl5eXtjuF/cgLxJ+vr63/xi19MmDCBb9ZENH78+GXLln35y19etmxZQUEBEfHktFGjRt1+++0ffPBB4qNzhvHmCER04YUXJnnZW7ZsmT9/Pn9XZmbmsmXLrr322oULF06bNm3nzp2JR+q6vm7dOt7hhtM0Ozv74osv/vKXv3zDDTece+65nIWKoqSnp1911VVvvvkmBwk/39bWVq4O5/F4Pve5z33wwQcid522TOKKztFodOnSpVySQFXVhx56SFR65p03p0+fLkaYrr32Wn4BDcPgVAiFQnfffTfXguNL5Vdy1apVPNFOkqTCwsK///3vq1at4ke54447xPn5g7Kysquuuoprmz7yyCNcBQcgeVh/A4OI74Capn3lK185efJkSUmJpmnTp0//l3/5Fy4ITW0T20TXjVgBo+t6Tk7OnXfeWVhY+PLLLx88eLC8vPzYsWPHjh2jtsI2Pp9v7NixkyZNuuKKK6699toxY8bwCDmfQVXVeDz+hS98gcfP+c7eKV48JLVV05k9e/bq1atbWloOHToUCoXWrVvn8/lisVhaWtobb7wxZ84cwzC4XJskSUuXLvX7/WPHjn333XePHj3a2Nj40Ucf7dixQ7wCBQUFRUVFCxYsWL169bnnnst5wwMntm3n5OQUFBRMnDjx61//+syZM6ltPIZnUXMlhUgkEggEHnvssW9+85sHDx4cPXp0YWGh3+8XRQRGjBixYsWKeDze1NQ0bty4pUuXiq62QCAQjUaDweB9993n8/nefPPNkpISXdePHTt24sQJVVVN08zNzV24cOGKFSsWLVr0zjvvjB49moguuugix3H49eTnkp+fP3PmzJ07dwaDwfHjx/NwGkDyUGwcBh0PyWzatGnfvn2tra3Lly+fPHkyj2+L8jNikECsUiQivvsbhlFTU7N9+/adO3dWVlbGYjGxsiQ7O3vRokWXXnrpqFGjEhegOG27IPMt+OWXX05LS1u8ePH48eO7ukinrWAlB09dXd3mzZt37NhRWlrKSywDgUBWVtZPfvKTYDDYsYTlyZMny8rKtm3btnfvXl77ws8rIyNjzpw5s2fPPvvss3NyciihIhk/Vmlp6fr16wsLC6+++mpeyS9qayYeHA6Hg8Hghx9++I9//GPKlClz587NyMjgM/AUierq6o0bN9bV1U2cOHHRokVcPlWSpGg06vP5+BWuqakpLS198803jxw5IiZV5+fnz5kz54ILLpg4caLX6y0tLf3HP/6hKMqNN94ompWO43DFgf3792/ZsiU9Pf3KK6/MycnBVALoFeQNDCK+XSaW6I/FYoFAwElYrcLVBBLTIh6Pi9pfophKYlE1HsCXJIl7fkQ4iS1nEpODuq1omahd5PACIMMweKKXYRjp6el8+5ZlmUtiE1EsFuPBHh7a4fNw5KSlpfF5eKyex+cTo5QfkdcecSmzxFnIIm4Tv4UfV2QSf1XEEreExPM1DIOX0SSWBzVNk7ce4NPyctrE1ycajfKcDn5ELt7DicVbJ/T59wGGOeQNDCLuH+OFJqJ2Cy8w7PgWnol/8n2cj0ys7uwkVIRMrAPd8QC+7XLritru151ep5NQ+9JpqxgmuqRaW1v5nX7H3Ep8XPFAYvWl07bZQeLiGJG+1LYlgTiGa5WKHBInF4dxK6fj6yAeTkxaEw9NCaVuEjOYp5+Jb+cs51jlROm40wE/BP9ARVwBJA95A4PLaatsxjXQxH1QvGsWR/LNXbwTFzf3xCEZIfG9Nt9PxTJ7XvzI0eK0zZnmFf7dX2fixYjLFg0IEZA8HyyxQcZtIN4sgBcGiRX7YpV+YjOu3eYIiYnbsS+R2ppEoqknmlb8GZ5iwJvciPOI3BILksTLyDP3eBa1SI7EV1v0cIra1dxi459Lp5cNkAzkDQwicRdLDADxHlmU6RQ36MR39FJCxWVxnsRhHv5A3KDFG3Y+Sbt/Uk/3R/6q4zhcJ1Q8aGLda/p0LLVrYSSmSGIjhjqM2bRrJIkHEjHGQSKegmivcEciXycPULW7fv5G0dLiV56jRXSOiW0ROl5n4pMVD5r4NNt9O0CvIG9gAJzuN6Chuv4z4HXjD07rZwGuQX0BAABwA/IGAADcgLwBAAA3YPwGAADcgPYNAAC4AXkDAABuQN4AAIAbkDcAAOAG5A0AALgBeQMAAG5A3gAAgBuQNwAA4AbkDQAAuAF5AwAAbkDeAACAG5A3AADgBuQNAAC4AXkDAABuQN4AAIAbkDcAAOAG5A0AALgBeQMAAG5A3gAAgBuQNwAA4AbkDQAAuAF5AwAAbkDeAACAG5A3AADgBuQNAAC4AXkDAABuQN4AAIAbkDcAAOAG5A0AALgBeQMAAG5A3gAAgBuQNwAA4AbkDQAAuAF5AwAAbkDeAACAG5A3AADgBuQNAAC4AXkDAABuQN4AAIAbkDcAAOAG5A0AALgBeQMAAG5A3gAAgBuQNwAA4AbkDQAAuAF5AwAAbkDeAACAG5A3AADgBuQNAAC4AXkDAABuQN4AAIAbkDcAAOAG5A0AALgBeQMAAG5A3gAAgBuQNwAA4AbkDQAAuOH/A8Q0sjXZiIZUAAAAAElFTkSuQmCC;" parent="1" vertex="1">
          <mxGeometry x="612.0900000000001" y="373.58" width="125.81" height="79.84" as="geometry" />
        </mxCell>
        <mxCell id="27v5HE9clx1l_0dUM49G-2" value="&lt;b&gt;&lt;font style=&quot;font-size: 24px;&quot;&gt;CRM&lt;/font&gt;&lt;/b&gt;" style="text;strokeColor=none;align=center;fillColor=none;html=1;verticalAlign=middle;whiteSpace=wrap;rounded=0;" parent="1" vertex="1">
          <mxGeometry x="814.34" y="530" width="80" height="40" as="geometry" />
        </mxCell>
        <mxCell id="9z63jUB6I__pgRGD_R05-1" style="edgeStyle=orthogonalEdgeStyle;rounded=0;orthogonalLoop=1;jettySize=auto;html=1;exitX=0;exitY=0.5;exitDx=0;exitDy=0;entryX=1;entryY=0.5;entryDx=0;entryDy=0;" edge="1" parent="1" source="27v5HE9clx1l_0dUM49G-14" target="27v5HE9clx1l_0dUM49G-22">
          <mxGeometry relative="1" as="geometry" />
        </mxCell>
        <mxCell id="27v5HE9clx1l_0dUM49G-14" value="" style="strokeColor=#dddddd;shadow=1;strokeWidth=1;rounded=1;absoluteArcSize=1;arcSize=2;" parent="1" vertex="1">
          <mxGeometry x="930" y="215.9" width="120" height="60" as="geometry" />
        </mxCell>
        <mxCell id="27v5HE9clx1l_0dUM49G-15" value="Cloud&#xa;Storage" style="editableCssRules=.*;html=1;fontColor=#999999;shape=image;verticalLabelPosition=middle;verticalAlign=middle;labelPosition=right;align=left;spacingLeft=20;part=1;points=[];imageAspect=0;image=data:image/svg+xml,PHN2ZyB4bWxucz0iaHR0cDovL3d3dy53My5vcmcvMjAwMC9zdmciIHhtbG5zOnY9Imh0dHBzOi8vdmVjdGEuaW8vbmFubyIgd2lkdGg9IjIwIiBoZWlnaHQ9IjE2IiB2aWV3Qm94PSIwIDAgMjAgMTYiPiYjeGE7CTxzdHlsZSB0eXBlPSJ0ZXh0L2NzcyI+JiN4YTsJLnN0MHtmaWxsOiM0Mjg1ZjQ7fSYjeGE7CS5zdDF7ZmlsbDojNjY5ZGY2O30mI3hhOwkuc3Qye2ZpbGw6I2FlY2JmYTt9JiN4YTsJLnN0M3tmaWxsOiNmZmY7fSYjeGE7CTwvc3R5bGU+JiN4YTsJPHBhdGggY2xhc3M9InN0MiIgZD0iTTAgMGgyMHY3SDB6Ii8+JiN4YTsJPHBhdGggY2xhc3M9InN0MSIgZD0iTTE4IDBoMnY3aC0yeiIvPiYjeGE7CTxwYXRoIGNsYXNzPSJzdDAiIGQ9Ik0xOCA3bDItN2gtMnoiLz4mI3hhOwk8cGF0aCBjbGFzcz0ic3QxIiBkPSJNMCAwaDJ2N0gweiIvPiYjeGE7CTxnIGNsYXNzPSJzdDMiPiYjeGE7CQk8cGF0aCBkPSJNNCAzaDZ2MUg0eiIvPiYjeGE7CQk8cmVjdCB4PSIxMyIgeT0iMiIgd2lkdGg9IjMiIGhlaWdodD0iMyIgcng9IjEuNSIvPiYjeGE7CTwvZz4mI3hhOwk8cGF0aCBjbGFzcz0ic3QyIiBkPSJNMCA5aDIwdjdIMHoiLz4mI3hhOwk8cGF0aCBjbGFzcz0ic3QxIiBkPSJNMTggOWgydjdoLTJ6Ii8+JiN4YTsJPHBhdGggY2xhc3M9InN0MCIgZD0iTTE4IDE2bDItN2gtMnoiLz4mI3hhOwk8cGF0aCBjbGFzcz0ic3QxIiBkPSJNMCA5aDJ2N0gweiIvPiYjeGE7CTxnIGNsYXNzPSJzdDMiPiYjeGE7CQk8cGF0aCBkPSJNNCAxMmg2djFINHoiLz4mI3hhOwkJPHJlY3QgeD0iMTMiIHk9IjExIiB3aWR0aD0iMyIgaGVpZ2h0PSIzIiByeD0iMS41Ii8+JiN4YTsJPC9nPiYjeGE7PC9zdmc+;" parent="27v5HE9clx1l_0dUM49G-14" vertex="1">
          <mxGeometry width="30" height="24" relative="1" as="geometry">
            <mxPoint x="15" y="18" as="offset" />
          </mxGeometry>
        </mxCell>
        <mxCell id="27v5HE9clx1l_0dUM49G-17" value="Looker" style="sketch=0;html=1;verticalAlign=top;labelPosition=center;verticalLabelPosition=bottom;align=center;spacingTop=-6;fontSize=11;fontStyle=1;fontColor=#999999;shape=image;aspect=fixed;imageAspect=0;image=data:image/svg+xml,PHN2ZyB4bWxucz0iaHR0cDovL3d3dy53My5vcmcvMjAwMC9zdmciIGlkPSJzdmc4OTgwMSIgdmVyc2lvbj0iMS4xIiB2aWV3Qm94PSIwIDAgMjA4LjA1NjU1IDMzNC42MTMxNiIgaGVpZ2h0PSIzMzQuNjEzMTZtbSIgd2lkdGg9IjIwOC4wNTY1NW1tIj4mI3hhOyAgJiN4YTsgIDxkZWZzIGlkPSJkZWZzODk3OTgiLz4mI3hhOyAgPGcgdHJhbnNmb3JtPSJ0cmFuc2xhdGUoLTQuMjQ2MjUyNCwxNS42NzE5MTEpIiBpZD0ibGF5ZXIxIj4mI3hhOyAgICA8cGF0aCBpZD0icGF0aDkxODAyIiB0cmFuc2Zvcm09InNjYWxlKDAuMjY0NTgzMzMpIiBkPSJtIDQwOS4yMjI2Niw0MTkuMDk5NjEgYyAtMzYuNjA4MTEsMCAtNzIuMDc2NjcsNS4wNzUzIC0xMDUuNzUzOTEsMTQuNTMxMjUgbCA0OS4wMzUxNiwxMjAuMDQxMDIgYyAxOC4yNjE3MiwtMy45Mzg5OSAzNy4yMjE5NiwtNi4wNjgzNiA1Ni43MTg3NSwtNi4wNjgzNiAxNDYuOTM1MTQsMCAyNjQuNjc3NzMsMTE3LjczNDc3IDI2NC42Nzc3MywyNjQuNjY5OTIgMCwxNDYuOTM1MTQgLTExNy43NDI1OSwyNjQuNjY5OTYgLTI2NC42Nzc3MywyNjQuNjY5OTYgLTE0Ni45MzUxNiwwIC0yNjQuNjY5OTEsLTExNy43MzQ4MiAtMjY0LjY2OTkzLC0yNjQuNjY5OTYgMCwtOTkuMTg3NjMgNTMuNjg5ODMsLTE4NS4wMDU5NiAxMzMuNzU1ODYsLTIzMC4zNDc2NiBMIDIyOS42MjY5NSw0NjIuNzUgQyAxMDMuMDI0Nyw1MjguMjI0NzQgMTYuMDQ4ODI3LDY2MC41MDUyMyAxNi4wNDg4MjgsODEyLjI3MzQ0IGMgMi4zZS01LDIxNi4zODM3NiAxNzYuNzkwMDYyLDM5My4xNzM4NiAzOTMuMTczODMyLDM5My4xNzM4NiAyMTYuMzgzNzMsMCAzOTMuMTgxNjQsLTE3Ni43OTAxIDM5My4xODE2NCwtMzkzLjE3Mzg2IDNlLTUsLTIxNi4zODM3OCAtMTc2Ljc5Nzg3LC0zOTMuMTczODMgLTM5My4xODE2NCwtMzkzLjE3MzgzIHoiIHN0eWxlPSJjb2xvcjojMDAwMDAwO29wYWNpdHk6MTtmaWxsOiM1OTg2ZjI7ZmlsbC1vcGFjaXR5OjE7c3Ryb2tlLXdpZHRoOjMuNzc5NTM7c3Ryb2tlLWxpbmVqb2luOnJvdW5kOy1pbmtzY2FwZS1zdHJva2U6bm9uZSIvPiYjeGE7ICAgIDxwYXRoIGQ9Im0gMTg5Ljk0MzM2LDg2LjI1IGMgLTk1LjEzMDMzMSwwIC0xNzMuMTc5Njg4LDc4LjA1NTIyIC0xNzMuMTc5Njg4LDE3My4xODU1NSAtNmUtNiw5NS4xMzAzMyA3OC4wNDkzNTMsMTczLjE3OTY4IDE3My4xNzk2ODgsMTczLjE3OTY4IDkuMDE2MTgsMCAxNy44NzU4LC0wLjcwODMyIDI2LjUzMzIsLTIuMDU4NTkgbCAtMzQuODI4MTIsLTg1LjI2NTYyIGMgLTQ0LjE1NzMsLTQuMDg2NjkgLTc3Ljk1NTA4LC00MC41MDcwNSAtNzcuOTU1MDgsLTg1Ljg1NTQ3IDAsLTQ4LjE1MDM5IDM4LjA5OTYyLC04Ni4yNTU4NiA4Ni4yNSwtODYuMjU1ODYgMTMuMTU5NzcsMCAyNS41NTg4OCwyLjg2MjQ2IDM2LjY0NDUzLDcuOTgyNDIgbCA2NC41NTQ2OSwtNjEuOTE5OTIgQyAyNjIuNjA4MzcsOTguNTMzOTEgMjI3LjYyOTI5LDg2LjI1IDE4OS45NDMzNiw4Ni4yNSBaIG0gMTM4Ljg4ODY3LDcwLjE2MjExIC02My40Mjc3Myw2MC44MzU5NCBjIDYuODc2MzgsMTIuNDI2NzggMTAuNzg5MDYsMjYuNzg4MTUgMTAuNzg5MDYsNDIuMTg3NSAwLDIxLjc2NzEyIC03LjgwNDE1LDQxLjQ2NTQgLTIwLjc4NTE2LDU2LjUzMzIgbCAzNC41MjM0NCw4NC41MTk1MyBjIDQ0LjE3Mzg3LC0zMS40ODc1MSA3My4xOTE0MSwtODMuMDc4OTIgNzMuMTkxNDEsLTE0MS4wNTI3MyAwLC0zOC40ODM1NSAtMTIuNzgyLC03NC4xNjUzMiAtMzQuMjkxMDIsLTEwMy4wMjM0NCB6IiB0cmFuc2Zvcm09InNjYWxlKDAuMjY0NTgzMzMpIiBzdHlsZT0iY29sb3I6IzAwMDAwMDtvcGFjaXR5OjE7ZmlsbDojNmY5OGY0O2ZpbGwtb3BhY2l0eToxO3N0cm9rZS13aWR0aDozLjc3OTUzO3N0cm9rZS1saW5lam9pbjpyb3VuZDstaW5rc2NhcGUtc3Ryb2tlOm5vbmUiIGlkPSJwYXRoOTE3OTgiLz4mI3hhOyAgICA8cGF0aCBpZD0icGF0aDg5OTI4IiB0cmFuc2Zvcm09InNjYWxlKDAuMjY0NTgzMzMpIiBkPSJtIDQwNi4xMzY3MiwtNTkuMjMyNDIyIGMgLTU4LjgxNTQ3LDhlLTYgLTEwNy4xMDM1Miw0OC4yODgwNDUgLTEwNy4xMDM1MiwxMDcuMTAzNTE2IDAsMTguNDk0NDUxIDQuNzgxMDEsMzUuOTQ1MDE3IDEzLjE1NjI1LDUxLjE4MzU5NCBsIDQ0LjMxMjUsLTQyLjUwMzkwNyBjIC0wLjQ3NTY3LC0yLjgyMDc3NSAtMC43NzUzOSwtNS43MDc1NjQgLTAuNzc1MzksLTguNjc5Njg3IDAsLTI4LjE3NjM4IDIyLjIzMzc4LC01MC40MTAxNTI1IDUwLjQxMDE2LC01MC40MTAxNTY1IDI4LjE3NjM4LC00ZS02IDUwLjQxMDE1LDIyLjIzMzc3MDUgNTAuNDEwMTYsNTAuNDEwMTU2NSAwLDI4LjE3NjM4MSAtMjIuMjMzNzgsNTAuNDEyMTEzIC01MC40MTAxNiw1MC40MTIxMDkgLTUuMDY4NjksLTEwZS03IC05LjkzNDE3LC0wLjc0NTYzMSAtMTQuNTIzNDQsLTIuMDg5ODQ0IGwgLTQzLjM2MTMzLDQxLjU5MTgwMSBjIDE2LjczMjIzLDEwLjg0Nzk1IDM2LjYxMTIzLDE3LjE4OTQ1IDU3Ljg4NDc3LDE3LjE4OTQ1IDU4LjgxNTQ5LDEwZS02IDEwNy4xMDM1MSwtNDguMjg4MDQgMTA3LjEwMzUxLC0xMDcuMTAzNTE2IDAsLTU4LjgxNTQ4MyAtNDguMjg4MDIsLTEwNy4xMDM1MjMgLTEwNy4xMDM1MSwtMTA3LjEwMzUxNiB6IiBzdHlsZT0iY29sb3I6IzAwMDAwMDtvcGFjaXR5OjE7ZmlsbDojZDZlM2ZiO2ZpbGwtb3BhY2l0eToxO3N0cm9rZS13aWR0aDozLjc3OTUzO3N0cm9rZS1saW5lam9pbjpyb3VuZDstaW5rc2NhcGUtc3Ryb2tlOm5vbmUiLz4mI3hhOyAgPC9nPiYjeGE7PC9zdmc+;" parent="1" vertex="1">
          <mxGeometry x="500" y="386.42" width="41.48" height="67" as="geometry" />
        </mxCell>
        <mxCell id="27v5HE9clx1l_0dUM49G-20" style="edgeStyle=orthogonalEdgeStyle;rounded=0;orthogonalLoop=1;jettySize=auto;html=1;exitX=1;exitY=0.5;exitDx=0;exitDy=0;" parent="1" source="27v5HE9clx1l_0dUM49G-18" target="H0iX1OeEeafwR9ZZ4RMi-6" edge="1">
          <mxGeometry relative="1" as="geometry" />
        </mxCell>
        <mxCell id="27v5HE9clx1l_0dUM49G-18" value="Dataflow" style="sketch=0;html=1;verticalAlign=top;labelPosition=center;verticalLabelPosition=bottom;align=center;spacingTop=-6;fontSize=11;fontStyle=1;fontColor=#999999;shape=image;aspect=fixed;imageAspect=0;image=data:image/svg+xml,PHN2ZyB4bWxucz0iaHR0cDovL3d3dy53My5vcmcvMjAwMC9zdmciIHhtbG5zOnY9Imh0dHBzOi8vdmVjdGEuaW8vbmFubyIgd2lkdGg9IjE0LjUxOTk5OTUwNDA4OTM1NSIgaGVpZ2h0PSIyMCIgdmlld0JveD0iMCAwIDE0LjUxOTk5OTUwNDA4OTM1NSAyMCI+JiN4YTsJPHN0eWxlIHR5cGU9InRleHQvY3NzIj4mI3hhOwkuc3Qwe2ZpbGwtcnVsZTpldmVub2RkfSYjeGE7CS5zdDF7ZmlsbDojNjY5ZGY2O30mI3hhOwkuc3Qye2ZpbGw6I2FlY2JmYTt9JiN4YTsJLnN0M3tmaWxsOiM0Mjg1ZjQ7fSYjeGE7CTwvc3R5bGU+JiN4YTsJPGcgY2xhc3M9InN0MCI+JiN4YTsJCTxwYXRoIGNsYXNzPSJzdDEiIGQ9Ik03LjM3IDIuMDNsLTEuNzIuOTYgMS41MiAxLjUtLjAyIDEuNzMgMS4wMi4wMS4wMi0xLjczIDQuMjQgMi41Ni0uMDEgMS4wNyAxLjc3LjAzVjYuMTFMOS4wNSAzLjA0bC0uMjctLjk0eiIvPiYjeGE7CQk8cGF0aCBjbGFzcz0ic3QyIiBkPSJNNy4zNiAyLjAzbC0xLjQyLjM1LS4yOS42MUwuMzkgNS45Mi4zNiA3Ljk3IDIuMTQgOGwuMDItMS4wNyA0LjMxLTIuNDUtLjAyIDEuNzMuODYuMDEuMDYtNC4xOXoiLz4mI3hhOwkJPGcgY2xhc3M9InN0MSI+JiN4YTsJCQk8cGF0aCBkPSJNNy4zNiAyLjAzTDMuOTUgMCAyLjIxLjk1bDMuNDQgMi4wNCAxLjcyLS45NnptLjcxIDExLjc2bC0xLjcyLS4wMi0uMDIgMS43Mi44MiAyLjQ4IDEuNDItLjEyLjI5LS44NSA1LjI3LTIuOTMuMDMtMi4wOS0xLjc5LS4wMi0uMDIgMS4xLTQuMyAyLjQ1eiIvPiYjeGE7CQkJPHBhdGggZD0iTTcuMTUgMTcuOTdsLTMuNDYgMS45NGgtLjA1bC0xLjY2LS45OSAzLjQ5LTEuOTYgMS42OCAxLjAxeiIvPiYjeGE7CQk8L2c+JiN4YTsJCTxwYXRoIGNsYXNzPSJzdDMiIGQ9Ik0xMC44OC4wOWgtLjA1TDcuMzcgMi4wM2wxLjY4IDEuMDEgMy40OS0xLjk2ek0xMC42MiAyMGgtLjA1bC0zLjQyLTIuMDNoMCAwIDBsMS43Mi0uOTYgMy40NCAyLjA0eiIvPiYjeGE7CQk8cGF0aCBjbGFzcz0ic3QyIiBkPSJNLjMzIDEzLjg5di0yaDEuNzZsLS4wMSAxLjA0IDQuMjUgMi41Ni4wMi0xLjcyLjg2LjAxLS4wNiA0LjE4LTEuNjgtMXoiLz4mI3hhOwk8L2c+JiN4YTsJPGNpcmNsZSBjbGFzcz0ic3QyIiBjeD0iMTMuMzgiIGN5PSIxMC4wNCIgcj0iMS4xNCIvPiYjeGE7CTxjaXJjbGUgY2xhc3M9InN0MiIgY3g9IjEuMTQiIGN5PSI5Ljg4IiByPSIxLjE0Ii8+JiN4YTsJPGNpcmNsZSBjbGFzcz0ic3QyIiBjeD0iNy4zMiIgY3k9IjcuOTkiIHI9IjEuMTQiLz4mI3hhOwk8Y2lyY2xlIGNsYXNzPSJzdDIiIGN4PSI3LjIzIiBjeT0iMTIiIHI9IjEuMTQiLz4mI3hhOzwvc3ZnPg==;" parent="1" vertex="1">
          <mxGeometry x="511.31" y="212.03" width="48.69" height="65.97" as="geometry" />
        </mxCell>
        <mxCell id="27v5HE9clx1l_0dUM49G-26" style="edgeStyle=orthogonalEdgeStyle;rounded=0;orthogonalLoop=1;jettySize=auto;html=1;exitX=0;exitY=0.5;exitDx=0;exitDy=0;" parent="1" source="27v5HE9clx1l_0dUM49G-22" target="H0iX1OeEeafwR9ZZ4RMi-6" edge="1">
          <mxGeometry relative="1" as="geometry" />
        </mxCell>
        <mxCell id="27v5HE9clx1l_0dUM49G-22" value="Cloud&#xa;Functions" style="sketch=0;html=1;verticalAlign=top;labelPosition=center;verticalLabelPosition=bottom;align=center;spacingTop=-6;fontSize=11;fontStyle=1;fontColor=#999999;shape=image;aspect=fixed;imageAspect=0;image=data:image/svg+xml,PHN2ZyB4bWxucz0iaHR0cDovL3d3dy53My5vcmcvMjAwMC9zdmciIHhtbG5zOnY9Imh0dHBzOi8vdmVjdGEuaW8vbmFubyIgd2lkdGg9IjIwIiBoZWlnaHQ9IjE5Ljk4OTk5OTc3MTExODE2NCIgdmlld0JveD0iMCAwIDIwIDE5Ljk4OTk5OTc3MTExODE2NCI+JiN4YTsJPHN0eWxlIHR5cGU9InRleHQvY3NzIj4mI3hhOwkuc3Qwe2ZpbGw6IzQyODVmNDt9JiN4YTsJLnN0MXtmaWxsOiM2NjlkZjY7fSYjeGE7CS5zdDJ7ZmlsbDojYWVjYmZhO30mI3hhOwk8L3N0eWxlPiYjeGE7CTxwYXRoIGNsYXNzPSJzdDEiIGQ9Ik0zIDMuOTlMMCA2LjQydjcuMTNsMyAyLjQ0eiIvPiYjeGE7CTxwYXRoIGNsYXNzPSJzdDAiIGQ9Ik0zIDMuOTlsLTMgNCAzLTJ6bS0zIDhsMyA0di0yeiIvPiYjeGE7CTxwYXRoIGNsYXNzPSJzdDIiIGQ9Ik0wIDE1Ljk5bDQgNCAyLTItNi02em0uMDEtOEw1Ljk5IDJsLTItMkwwIDMuOTl6Ii8+JiN4YTsJPHBhdGggY2xhc3M9InN0MSIgZD0iTTE3IDE2bDMtMi40MlY2LjQ0TDE3IDR6Ii8+JiN4YTsJPHBhdGggY2xhc3M9InN0MCIgZD0iTTE3IDE2bDMtNC0zIDJ6bTMtOGwtMy00djJ6Ii8+JiN4YTsJPGcgY2xhc3M9InN0MiI+JiN4YTsJCTxwYXRoIGQ9Ik0yMCA0bC00LTQtMiAyIDYgNnptLS4wMSA4bC01Ljk4IDUuOTkgMiAyTDIwIDE2eiIvPiYjeGE7CQk8Y2lyY2xlIGN4PSI2IiBjeT0iOS45OSIgcj0iMSIvPiYjeGE7CQk8Y2lyY2xlIGN4PSIxMCIgY3k9IjkuOTkiIHI9IjEiLz4mI3hhOwkJPGNpcmNsZSBjeD0iMTMuOTkiIGN5PSI5Ljk5IiByPSIxIi8+JiN4YTsJPC9nPiYjeGE7PC9zdmc+;" parent="1" vertex="1">
          <mxGeometry x="800" y="215.9" width="73.02" height="59.11" as="geometry" />
        </mxCell>
        <mxCell id="9z63jUB6I__pgRGD_R05-5" style="edgeStyle=orthogonalEdgeStyle;rounded=0;orthogonalLoop=1;jettySize=auto;html=1;exitX=0.5;exitY=1;exitDx=0;exitDy=0;" edge="1" parent="1" source="9z63jUB6I__pgRGD_R05-3" target="27v5HE9clx1l_0dUM49G-2">
          <mxGeometry relative="1" as="geometry" />
        </mxCell>
        <mxCell id="9z63jUB6I__pgRGD_R05-3" value="Dataflow" style="sketch=0;html=1;verticalAlign=top;labelPosition=center;verticalLabelPosition=bottom;align=center;spacingTop=-6;fontSize=11;fontStyle=1;fontColor=#999999;shape=image;aspect=fixed;imageAspect=0;image=data:image/svg+xml,PHN2ZyB4bWxucz0iaHR0cDovL3d3dy53My5vcmcvMjAwMC9zdmciIHhtbG5zOnY9Imh0dHBzOi8vdmVjdGEuaW8vbmFubyIgd2lkdGg9IjE0LjUxOTk5OTUwNDA4OTM1NSIgaGVpZ2h0PSIyMCIgdmlld0JveD0iMCAwIDE0LjUxOTk5OTUwNDA4OTM1NSAyMCI+JiN4YTsJPHN0eWxlIHR5cGU9InRleHQvY3NzIj4mI3hhOwkuc3Qwe2ZpbGwtcnVsZTpldmVub2RkfSYjeGE7CS5zdDF7ZmlsbDojNjY5ZGY2O30mI3hhOwkuc3Qye2ZpbGw6I2FlY2JmYTt9JiN4YTsJLnN0M3tmaWxsOiM0Mjg1ZjQ7fSYjeGE7CTwvc3R5bGU+JiN4YTsJPGcgY2xhc3M9InN0MCI+JiN4YTsJCTxwYXRoIGNsYXNzPSJzdDEiIGQ9Ik03LjM3IDIuMDNsLTEuNzIuOTYgMS41MiAxLjUtLjAyIDEuNzMgMS4wMi4wMS4wMi0xLjczIDQuMjQgMi41Ni0uMDEgMS4wNyAxLjc3LjAzVjYuMTFMOS4wNSAzLjA0bC0uMjctLjk0eiIvPiYjeGE7CQk8cGF0aCBjbGFzcz0ic3QyIiBkPSJNNy4zNiAyLjAzbC0xLjQyLjM1LS4yOS42MUwuMzkgNS45Mi4zNiA3Ljk3IDIuMTQgOGwuMDItMS4wNyA0LjMxLTIuNDUtLjAyIDEuNzMuODYuMDEuMDYtNC4xOXoiLz4mI3hhOwkJPGcgY2xhc3M9InN0MSI+JiN4YTsJCQk8cGF0aCBkPSJNNy4zNiAyLjAzTDMuOTUgMCAyLjIxLjk1bDMuNDQgMi4wNCAxLjcyLS45NnptLjcxIDExLjc2bC0xLjcyLS4wMi0uMDIgMS43Mi44MiAyLjQ4IDEuNDItLjEyLjI5LS44NSA1LjI3LTIuOTMuMDMtMi4wOS0xLjc5LS4wMi0uMDIgMS4xLTQuMyAyLjQ1eiIvPiYjeGE7CQkJPHBhdGggZD0iTTcuMTUgMTcuOTdsLTMuNDYgMS45NGgtLjA1bC0xLjY2LS45OSAzLjQ5LTEuOTYgMS42OCAxLjAxeiIvPiYjeGE7CQk8L2c+JiN4YTsJCTxwYXRoIGNsYXNzPSJzdDMiIGQ9Ik0xMC44OC4wOWgtLjA1TDcuMzcgMi4wM2wxLjY4IDEuMDEgMy40OS0xLjk2ek0xMC42MiAyMGgtLjA1bC0zLjQyLTIuMDNoMCAwIDBsMS43Mi0uOTYgMy40NCAyLjA0eiIvPiYjeGE7CQk8cGF0aCBjbGFzcz0ic3QyIiBkPSJNLjMzIDEzLjg5di0yaDEuNzZsLS4wMSAxLjA0IDQuMjUgMi41Ni4wMi0xLjcyLjg2LjAxLS4wNiA0LjE4LTEuNjgtMXoiLz4mI3hhOwk8L2c+JiN4YTsJPGNpcmNsZSBjbGFzcz0ic3QyIiBjeD0iMTMuMzgiIGN5PSIxMC4wNCIgcj0iMS4xNCIvPiYjeGE7CTxjaXJjbGUgY2xhc3M9InN0MiIgY3g9IjEuMTQiIGN5PSI5Ljg4IiByPSIxLjE0Ii8+JiN4YTsJPGNpcmNsZSBjbGFzcz0ic3QyIiBjeD0iNy4zMiIgY3k9IjcuOTkiIHI9IjEuMTQiLz4mI3hhOwk8Y2lyY2xlIGNsYXNzPSJzdDIiIGN4PSI3LjIzIiBjeT0iMTIiIHI9IjEuMTQiLz4mI3hhOzwvc3ZnPg==;" vertex="1" parent="1">
          <mxGeometry x="830" y="370" width="48.69" height="65.97" as="geometry" />
        </mxCell>
        <mxCell id="9z63jUB6I__pgRGD_R05-6" value="Website" style="text;strokeColor=none;align=center;fillColor=none;html=1;verticalAlign=middle;whiteSpace=wrap;rounded=0;" vertex="1" parent="1">
          <mxGeometry x="84" y="300" width="60" height="30" as="geometry" />
        </mxCell>
      </root>
    </mxGraphModel>
  </diagram>
</mxfile>
